<svg width="402" height="32" viewBox="0 0 402 32" fill="none" xmlns="http://www.w3.org/2000/svg">
<g clip-path="url(#clip0_9198_15253)">
<path d="M122.39 21.4007C122.39 20.7507 122.27 20.2407 122.02 19.8607C121.78 19.4807 121.48 19.2007 121.14 19.0107C120.8 18.8207 120.46 18.7007 120.1 18.6407C119.75 18.5907 119.46 18.5607 119.25 18.5607H100.48V24.2107H119.26C119.42 24.2107 119.67 24.1807 120.01 24.1307C120.35 24.0807 120.69 23.9507 121.05 23.7607C121.4 23.5707 121.71 23.2907 121.98 22.9107C122.25 22.5307 122.38 22.0307 122.38 21.4107M122.36 10.4407C122.36 9.7907 122.24 9.2807 121.99 8.9007C121.74 8.5207 121.45 8.2407 121.11 8.0707C120.77 7.8907 120.43 7.7807 120.07 7.7207C119.72 7.6707 119.43 7.6407 119.22 7.6407H100.45V13.2907H119.23C119.39 13.2907 119.64 13.2607 119.98 13.2107C120.32 13.1607 120.66 13.0307 121.02 12.8207C121.37 12.6207 121.68 12.3307 121.95 11.9507C122.22 11.5707 122.35 11.0707 122.35 10.4507M129.24 22.2707C129.24 23.6807 129 24.8807 128.51 25.8707C128.02 26.8607 127.37 27.6707 126.54 28.3107C125.72 28.9507 124.74 29.4107 123.62 29.7107C122.5 30.0107 121.29 30.1607 119.99 30.1607H95.87C94.57 30.1607 93.34 28.9607 93.33 27.6807L93.29 3.6907C93.29 2.5407 94.13 1.7207 95.3 1.7207H119.94C121.29 1.7207 122.54 1.8807 123.68 2.1907C124.82 2.5007 125.79 2.9807 126.61 3.6307C127.42 4.2807 128.06 5.1107 128.53 6.1307C128.99 7.1407 129.22 8.3707 129.23 9.8107C129.2 10.6807 129.04 11.5007 128.75 12.2907C128.51 12.9707 128.12 13.6407 127.57 14.3207C127.03 15.0007 126.25 15.5507 125.22 15.9907C126.25 16.4807 127.04 17.0807 127.58 17.8007C128.12 18.5207 128.52 19.2207 128.76 19.8907C129.06 20.6707 129.22 21.4707 129.25 22.2907" fill="#153C58"/>
<path d="M154.18 6.85027L147.7 18.1503H160.7L154.18 6.85027ZM167.51 29.9703L164.21 24.2803H144.18L140.9 29.9703H133.3L149.12 2.33027C149.41 1.82027 149.96 1.53027 150.6 1.53027H157.54C158.25 1.53027 158.98 1.98027 159.37 2.64027L175.11 29.9703H167.51Z" fill="#153C58"/>
<path d="M195.04 23.0003L195.06 29.9703H187.95L187.93 23.3303L172.13 1.53027H180.66L191.42 16.9903L201.95 1.53027H210.77L195.04 23.0003Z" fill="#153C58"/>
<path d="M217.81 27.3503L217.76 1.53027H224.91L224.95 22.7503C224.95 23.3103 225.49 23.8303 226.06 23.8303H250.19V29.9703H220.49C219.11 29.9703 217.81 28.7003 217.81 27.3503Z" fill="#153C58"/>
<path d="M257.79 29.9703L257.74 1.53027H264.89L264.94 29.9703H257.79Z" fill="#153C58"/>
<path d="M303.31 29.2L283.52 10.11L283.56 29.98H276.41L276.36 3.16004C276.36 2.21004 277.05 1.54004 278.01 1.54004H282.47C283.12 1.54004 283.8 1.83004 284.33 2.34004L304.1 21.41L304.06 1.54004H311.21L311.26 28.29C311.26 29.28 310.54 29.98 309.53 29.98H305.11C304.48 29.98 303.82 29.7 303.31 29.21" fill="#153C58"/>
<path d="M322.06 27.95L322.01 3.03004C322.01 2.16004 322.64 1.54004 323.53 1.54004H356.26V7.67004H329.17V12.79H353.03V18.32H329.19V23.85H357.36V29.98H324.13C323.06 29.98 322.06 29 322.05 27.95" fill="#153C58"/>
<path d="M394.61 10.8803C394.61 10.2003 394.49 9.66027 394.24 9.24027C394 8.82027 393.7 8.50027 393.35 8.26027C393 8.03027 392.64 7.87027 392.27 7.79027C391.91 7.71027 391.61 7.67027 391.4 7.67027H374.05V14.1303H391.41C391.57 14.1303 391.83 14.0803 392.18 13.9903C392.53 13.8903 392.89 13.7303 393.26 13.4803C393.62 13.2403 393.94 12.9003 394.21 12.4803C394.48 12.0603 394.61 11.5303 394.61 10.8703M401.76 10.8703C401.76 12.1203 401.6 13.2103 401.28 14.1603C400.96 15.1103 400.53 15.9303 400.01 16.6203C399.48 17.3103 398.89 17.8903 398.22 18.3503C397.56 18.8103 396.89 19.1803 396.21 19.4503L401.19 29.9703H393.55L388.98 20.2603H374.07L374.09 29.9703H366.94L366.89 3.15027C366.89 2.20027 367.58 1.53027 368.55 1.53027H392.45C393.21 1.53027 394.12 1.67027 395.19 1.94027C396.26 2.21027 397.28 2.69027 398.26 3.38027C399.24 4.07027 400.06 5.02027 400.74 6.23027C401.42 7.43027 401.76 8.98027 401.76 10.8803" fill="#153C58"/>
<path d="M62.0101 25.4399C61.9901 25.6099 61.9601 25.7599 61.9001 25.8999C61.5901 26.6499 60.7101 27.0999 59.6101 27.2899C59.1601 27.3699 58.6801 27.4099 58.1801 27.4099H26.3701C26.3701 27.4099 29.7601 31.7599 39.1701 31.7599C47.2001 31.7599 52.3701 31.8299 58.1801 31.8299C60.3101 31.8299 62.0701 31.5499 63.4701 30.9999C64.5901 30.5599 65.4701 29.9499 66.1101 29.1599C65.7701 26.8899 63.8501 25.8699 62.0101 25.4199" fill="#48C1E1"/>
<path d="M67.1099 26.6902C67.2899 26.0402 67.3899 25.3302 67.3899 24.5502C67.3899 19.9402 62.0699 18.2802 59.0999 18.2802C57.9299 18.2802 18.9099 18.1602 12.8599 18.1602C12.8599 18.1602 15.2399 22.7202 27.1399 22.7202H55.4299C58.4699 22.7202 61.7399 22.5202 64.4899 24.0402C65.5899 24.6502 66.5399 25.5402 67.0899 26.6902" fill="#48C1E1"/>
<path d="M59.1 13.3396C60.22 13.3396 61.66 13.0596 63.04 12.4596C63.92 12.0796 64.76 11.5596 65.47 10.9096C65.65 10.7496 65.82 10.5696 65.98 10.3896C65.51 8.29961 63.74 7.30961 62.02 6.84961C62.02 6.88961 62.02 6.92961 62.02 6.97961C62.02 7.11961 62 7.23961 61.97 7.35961C61.73 8.31961 60.61 8.70961 59.47 8.83961C59.12 8.87961 58.77 8.89961 58.44 8.89961H0C0 8.89961 1.57 13.3296 13.03 13.3296H59.1V13.3396Z" fill="#48C1E1"/>
<path d="M57.9799 4.47C59.2699 4.48 60.5699 4.55 61.8299 4.82C63.2599 5.12 64.6899 5.67 65.7999 6.64C66.0399 6.85 66.2699 7.09 66.4799 7.34C66.5799 7.47 66.6799 7.6 66.7699 7.74C66.8099 7.8 67.0499 8.11 67.0299 8.17C67.2699 7.6 67.3999 6.97 67.3999 6.27C67.3899 1.88 63.6599 0 58.1799 0C54.7499 0 30.7599 0 25.8799 0C25.8799 0 28.3699 4.46 39.0899 4.46C41.0599 4.46 43.0399 4.46 45.0099 4.46C46.5799 4.46 48.1499 4.46 49.7199 4.46C50.8899 4.46 52.0599 4.46 53.2299 4.46C54.2599 4.46 55.2899 4.46 56.3199 4.46C56.8699 4.46 57.4199 4.46 57.9799 4.46" fill="#48C1E1"/>
</g>
<defs>
<clipPath id="clip0_9198_15253">
<rect width="402" height="32" fill="white"/>
</clipPath>
</defs>
</svg>
