<?xml version="1.0" encoding="UTF-8" standalone="no"?>
<!-- Created with Inkscape (http://www.inkscape.org/) -->

<svg
   xmlns:dc="http://purl.org/dc/elements/1.1/"
   xmlns:cc="http://creativecommons.org/ns#"
   xmlns:rdf="http://www.w3.org/1999/02/22-rdf-syntax-ns#"
   xmlns:svg="http://www.w3.org/2000/svg"
   xmlns="http://www.w3.org/2000/svg"
   xmlns:sodipodi="http://sodipodi.sourceforge.net/DTD/sodipodi-0.dtd"
   xmlns:inkscape="http://www.inkscape.org/namespaces/inkscape"
   width="726"
   height="130"
   id="svg2"
   version="1.1"
   inkscape:version="0.48.2 r9819"
   sodipodi:docname="Neues Dokument 1">
  <defs
     id="defs4">
    <clipPath
       id="clipPath3011"
       clipPathUnits="userSpaceOnUse">
      <path
         id="path3013"
         d="m 225.503,100.984 145.156,0 0,22.543 -145.156,0 0,-22.543 z"
         inkscape:connector-curvature="0" />
    </clipPath>
  </defs>
  <sodipodi:namedview
     id="base"
     pagecolor="#ffffff"
     bordercolor="#666666"
     borderopacity="1.0"
     inkscape:pageopacity="0.0"
     inkscape:pageshadow="2"
     inkscape:zoom="1.979899"
     inkscape:cx="398.76988"
     inkscape:cy="16.303628"
     inkscape:document-units="px"
     inkscape:current-layer="layer1"
     showgrid="false"
     inkscape:window-width="1440"
     inkscape:window-height="853"
     inkscape:window-x="-4"
     inkscape:window-y="-4"
     inkscape:window-maximized="1" />
  <metadata
     id="metadata7">
    <rdf:RDF>
      <cc:Work
         rdf:about="">
        <dc:format>image/svg+xml</dc:format>
        <dc:type
           rdf:resource="http://purl.org/dc/dcmitype/StillImage" />
        <dc:title></dc:title>
      </cc:Work>
    </rdf:RDF>
  </metadata>
  <g
     inkscape:label="Ebene 1"
     inkscape:groupmode="layer"
     id="layer1"
     transform="translate(0,-922.36218)">
    <path
       inkscape:connector-curvature="0"
       d="m 209.69226,988.12347 -191.533857,0 0,-47.88346 191.533857,0 0,47.88346 z"
       style="fill:#55c1ea;fill-opacity:1;fill-rule:nonzero;stroke:none"
       id="path2995" />
    <path
       inkscape:connector-curvature="0"
       d="m 209.69226,1036.0069 -191.533857,0 0,-47.88343 191.533857,0 0,47.88343 z"
       style="fill:#123b6e;fill-opacity:1;fill-rule:nonzero;stroke:none"
       id="path2997" />
    <g
       id="g2999"
       transform="matrix(4.7616809,0,0,-4.7616809,127.39233,993.4737)">
      <path
         inkscape:connector-curvature="0"
         d="M 0,0 17.284,1.123 0,2.38 -2.814,9.294 -5.656,2.38 -22.94,1.123 -5.656,0 -2.828,-7.047 0,0 z"
         style="fill:#ffffff;fill-opacity:1;fill-rule:nonzero;stroke:none"
         id="path3001" />
    </g>
    <g
       id="g3003"
       transform="matrix(4.7616809,0,0,-4.7616809,113.9263,955.20596)">
      <path
         inkscape:connector-curvature="0"
         d="M 0,0 -2.514,-6.913 0,-13.827 0,0 z"
         style="fill:#123b6e;fill-opacity:1;fill-rule:nonzero;stroke:none"
         id="path3005" />
    </g>
    <g
       id="g3007"
       transform="matrix(4.7616809,0,0,-4.7616809,-1055.6149,1528.4409)">
      <g
         id="g3009"
         clip-path="url(#clipPath3011)">
        <g
           id="g3015"
           transform="translate(275.8844,106.2737)">
          <path
             inkscape:connector-curvature="0"
             d="m 0,0 1.446,0 c 1.835,0 2.503,1.057 2.503,3.087 0,2.057 -0.779,3.086 -2.837,3.086 L 0,6.173 0,0 z m 0,9.01 1.251,0 c 1.307,0 2.308,0.889 2.308,2.558 0,1.863 -0.723,2.836 -2.252,2.836 L 0,14.404 0,9.01 z m -3.448,8.23 5.116,0 c 3.699,0 5.339,-1.89 5.339,-5.311 0,-1.724 -0.722,-3.531 -2.391,-4.199 1.752,-0.778 2.781,-2.169 2.781,-4.755 0,-3.308 -1.474,-5.811 -5.395,-5.811 l -5.45,0 0,20.076 z"
             style="fill:#123b6e;fill-opacity:1;fill-rule:nonzero;stroke:none"
             id="path3017" />
        </g>
        <g
           id="g3019"
           transform="translate(291.2899,110.8897)">
          <path
             inkscape:connector-curvature="0"
             d="M 0,0 2.781,0 1.418,8.62 1.363,8.62 0,0 z m -1.112,-7.452 -3.337,0 3.698,20.076 4.283,0 3.698,-20.076 -3.337,0 -0.612,4.449 -3.781,0 -0.612,-4.449 z"
             style="fill:#123b6e;fill-opacity:1;fill-rule:nonzero;stroke:none"
             id="path3021" />
        </g>
        <g
           id="g3023"
           transform="translate(309.7537,123.5142)">
          <path
             inkscape:connector-curvature="0"
             d="m 0,0 3.392,0 -4.198,-20.077 -3.448,0 L -8.453,0 l 3.392,0 2.503,-13.931 0.055,0 L 0,0 z"
             style="fill:#123b6e;fill-opacity:1;fill-rule:nonzero;stroke:none"
             id="path3025" />
        </g>
        <g
           id="g3027"
           transform="translate(320.5431,110.8897)">
          <path
             inkscape:connector-curvature="0"
             d="M 0,0 2.781,0 1.418,8.62 1.362,8.62 0,0 z m -1.112,-7.452 -3.337,0 3.698,20.076 4.282,0 3.698,-20.076 -3.336,0 -0.612,4.449 -3.782,0 -0.611,-4.449 z"
             style="fill:#123b6e;fill-opacity:1;fill-rule:nonzero;stroke:none"
             id="path3029" />
        </g>
        <g
           id="g3031"
           transform="translate(336.4764,114.5046)">
          <path
             inkscape:connector-curvature="0"
             d="m 0,0 1.224,0 c 1.863,0 2.558,0.695 2.558,3.087 0,2.391 -0.695,3.086 -2.558,3.086 L 0,6.173 0,0 z m 0,-11.067 -3.448,0 0,20.077 4.838,0 c 3.866,0 5.84,-1.641 5.84,-5.923 0,-3.226 -1.252,-4.533 -2.419,-5.061 l 2.919,-9.093 -3.503,0 -2.447,8.314 C 1.335,-2.808 0.612,-2.836 0,-2.836 l 0,-8.231 z"
             style="fill:#123b6e;fill-opacity:1;fill-rule:nonzero;stroke:none"
             id="path3033" />
        </g>
        <path
           inkscape:connector-curvature="0"
           d="m 349.936,123.514 3.448,0 0,-20.077 -3.448,0 0,20.077 z"
           style="fill:#123b6e;fill-opacity:1;fill-rule:nonzero;stroke:none"
           id="path3035" />
        <g
           id="g3037"
           transform="translate(363.2554,110.8897)">
          <path
             inkscape:connector-curvature="0"
             d="M 0,0 2.781,0 1.418,8.62 1.363,8.62 0,0 z m -1.112,-7.452 -3.337,0 3.699,20.076 4.281,0 3.699,-20.076 -3.337,0 -0.612,4.449 -3.782,0 -0.611,-4.449 z"
             style="fill:#123b6e;fill-opacity:1;fill-rule:nonzero;stroke:none"
             id="path3039" />
        </g>
      </g>
    </g>
  </g>
</svg>
