<?xml version="1.0" encoding="utf-8"?>
<!-- Generator: Adobe Illustrator 23.0.4, SVG Export Plug-In . SVG Version: 6.00 Build 0)  -->
<svg version="1.1" id="Calque_2" xmlns="http://www.w3.org/2000/svg" xmlns:xlink="http://www.w3.org/1999/xlink" x="0px" y="0px"
	 viewBox="0 0 1366 269.2" style="enable-background:new 0 0 1366 269.2;" xml:space="preserve">
<style type="text/css">
	.st0{fill:#00507F;}
</style>
<g>
	<g>
		<path class="st0" d="M245.6,4.3h-76.8v59.3l97.8,112.5V25.3C266.6,13.7,257.2,4.3,245.6,4.3z"/>
		<path class="st0" d="M179.8,156.1l85.4,98.2c0.9-2.4,1.4-4.9,1.4-7.6v-30.4c0-10.8-3.9-21.3-11-29.4L168.8,87v39.6
			C168.8,137.5,172.7,147.9,179.8,156.1z"/>
		<rect x="116.3" y="4.3" class="st0" width="37" height="263.5"/>
		<path class="st0" d="M24.1,267.7h76.8V166.9l-85.8,98.7C17.8,267,20.9,267.7,24.1,267.7z"/>
		<path class="st0" d="M3.1,246.7c0,2.7,0.5,5.2,1.4,7.6l85.4-98.2c7.1-8.2,11-18.6,11-29.4V87l-86.8,99.9c-7.1,8.2-11,18.6-11,29.4
			V246.7z"/>
		<path class="st0" d="M3.1,25.3v150.8l97.8-112.5V4.3H24.1C12.5,4.3,3.1,13.7,3.1,25.3z"/>
		<path class="st0" d="M168.8,267.7h76.8c3.2,0,6.3-0.8,9-2.1l-85.8-98.7V267.7z"/>
	</g>
	<g>
		<g>
			<path class="st0" d="M1327.1,154.1c4.5-1,8.7-2.6,12.8-5c4.8-2.8,9.1-6.5,12.4-10.9c3.3-4.3,5.6-9.3,6.7-14.6
				c0.5-2.4,0.8-4.9,0.8-7.3c0-2.5-0.3-4.9-0.8-7.3c-1.1-5.3-3.5-10.3-6.7-14.6c-3.4-4.4-7.6-8.1-12.4-10.9
				c-5.5-3.2-11.5-5.1-17.9-5.8c-3.9-0.4-7.9-0.7-11.9-0.7l-76.8,0v117.7h26.2v-39.2h37.8l24.1,27.7c6.4,7.3,15.6,11.6,25.4,11.6h16
				L1327.1,154.1z M1296.2,138.3h-36.9V94.4h36.9c0,0,8.5,0.1,14,1c8,1.4,12.7,4.6,15.5,7.3c3.6,3.7,5.7,8.5,5.7,13.6
				s-2.1,9.9-5.7,13.6c-2.8,2.7-7.6,5.9-15.5,7.3C1304.7,138.2,1296.2,138.3,1296.2,138.3z"/>
			<path class="st0" d="M510.7,103.2c-5-6.6-11.4-12.1-18.6-16.3c-8.3-4.8-17.3-7.7-26.9-8.7c-5.9-0.7-11.9-1-17.9-1l-71.5,0v117.7
				h71.5c6,0,11.9-0.3,17.9-1c9.5-1,18.5-3.9,26.9-8.7c7.2-4.2,13.6-9.7,18.6-16.3c4.9-6.4,8.4-13.9,10.1-21.9
				c0.8-3.6,1.1-7.3,1.1-11c0-3.7-0.4-7.4-1.1-11C519.2,117.1,515.6,109.6,510.7,103.2z M469.5,173.5c-7.5,3.1-16.7,4-24.9,4H402
				V94.4h42.6c8.1,0,17.4,1,24.9,4c13.8,5.7,24.2,17.6,24.2,37.6C493.7,156,483.2,167.9,469.5,173.5z"/>
			<path class="st0" d="M941,74.3c-36,0-76.7,20.9-76.7,61.7c0,40.7,40.6,61.7,76.7,61.7c36,0,76.7-20.9,76.7-61.7
				C1017.7,95.3,977.1,74.3,941,74.3z M975.6,168.2c-9.4,8.3-20.1,12.2-34.5,12.2c-14.4,0-25.2-3.9-34.5-12.2
				c-8.6-7.6-13.8-19.1-13.8-32.2c0-13.2,5.2-24.7,13.8-32.2c9.4-8.3,20.1-12.2,34.5-12.2c14.4,0,25.2,3.9,34.5,12.2
				c8.6,7.6,13.8,19.1,13.8,32.2C989.4,149.2,984.2,160.6,975.6,168.2z"/>
			<path class="st0" d="M1162.8,168.7v26.1l26.2,0V77.1l-26.2,0l0,67.3c-5,19.3-27,36-49,36c-4.9,0-9.8-1-14.3-3
				c-4.4-1.9-8.3-4.7-11.6-8.1c-3.3-3.4-5.9-7.5-7.6-12c-1.8-4.6-2.4-9.5-2.4-14.4V77.1l-26.2,0v63.3c0.1,6.4,0.4,13.5,2,19.4
				c1.3,4.7,3.3,9.1,5.9,13.2c5.1,8.1,12.4,14.8,21,19.1c7.2,3.6,18.1,5.5,26.2,5.5C1128,197.7,1151.7,187,1162.8,168.7
				L1162.8,168.7z"/>
			<path class="st0" d="M667.1,168.7v26.1l26.2,0V77.1l-26.2,0l0,67.3c-5,19.3-27,36-49,36c-4.9,0-9.8-1-14.3-3
				c-4.4-1.9-8.3-4.7-11.6-8.1c-3.3-3.4-5.9-7.5-7.6-12c-1.8-4.6-2.4-9.5-2.4-14.4V77.1l-26.2,0v63.3c0.1,6.4,0.4,13.5,2,19.4
				c1.3,4.7,3.3,9.1,5.9,13.2c5.1,8.1,12.4,14.8,21,19.1c7.2,3.6,18.1,5.5,26.2,5.5C632.2,197.7,656,187,667.1,168.7L667.1,168.7z"
				/>
		</g>
		<path class="st0" d="M737.5,77.1v117.7h26.2v-50.2v0h45.7c6.6,0,12.8-2.9,17.1-7.9l8.2-9.4l-70.9,0v0V94.4h69.7
			c6.6,0,12.8-2.9,17.1-7.9l8.2-9.4L737.5,77.1z"/>
	</g>
</g>
</svg>
