<?xml version="1.0" encoding="UTF-8" standalone="no"?>
<!-- Created with Inkscape (http://www.inkscape.org/) -->

<svg
   xmlns:dc="http://purl.org/dc/elements/1.1/"
   xmlns:cc="http://creativecommons.org/ns#"
   xmlns:rdf="http://www.w3.org/1999/02/22-rdf-syntax-ns#"
   xmlns:svg="http://www.w3.org/2000/svg"
   xmlns="http://www.w3.org/2000/svg"
   xmlns:sodipodi="http://sodipodi.sourceforge.net/DTD/sodipodi-0.dtd"
   xmlns:inkscape="http://www.inkscape.org/namespaces/inkscape"
   width="284.35635"
   height="49.480888"
   viewBox="0 0 75.235953 13.091818"
   version="1.1"
   id="svg8967"
   inkscape:version="0.92.0 r15299"
   sodipodi:docname="sea ray.svg">
  <defs
     id="defs8961" />
  <sodipodi:namedview
     id="base"
     pagecolor="#ffffff"
     bordercolor="#666666"
     borderopacity="1.0"
     inkscape:pageopacity="0.0"
     inkscape:pageshadow="2"
     inkscape:zoom="3.1768366"
     inkscape:cx="141.17818"
     inkscape:cy="23.740445"
     inkscape:document-units="mm"
     inkscape:current-layer="layer1"
     showgrid="false"
     fit-margin-top="0"
     fit-margin-left="0"
     fit-margin-right="0"
     fit-margin-bottom="0"
     units="px"
     inkscape:window-width="1280"
     inkscape:window-height="744"
     inkscape:window-x="-4"
     inkscape:window-y="-4"
     inkscape:window-maximized="1" />
  <metadata
     id="metadata8964">
    <rdf:RDF>
      <cc:Work
         rdf:about="">
        <dc:format>image/svg+xml</dc:format>
        <dc:type
           rdf:resource="http://purl.org/dc/dcmitype/StillImage" />
        <dc:title></dc:title>
      </cc:Work>
    </rdf:RDF>
  </metadata>
  <g
     inkscape:label="Layer 1"
     inkscape:groupmode="layer"
     id="layer1"
     transform="translate(-50.33688,-329.00948)">
    <g
       id="g9037"
       transform="translate(0.26460872,-0.26448531)">
      <path
         id="path9021"
         transform="scale(0.26458333)"
         d="m 467.68945,1279.5312 v 3.6817 h 0.5918 v -1.5606 h 0.34961 a 0.75999999,0.75999999 0 0 1 0.47461,0.127 2.96,2.96 0 0 1 0.62109,0.8555 l 0.32617,0.58 h 0.72657 l -0.44922,-0.7168 a 4.05,4.05 0 0 0 -0.54492,-0.7343 1.05,1.05 0 0 0 -0.31055,-0.1934 1.12,1.12 0 0 0 0.76367,-0.3379 c 0.33184,-0.34 0.381,-0.8522 0.11719,-1.2402 a 0.93999999,0.93999999 0 0 0 -0.46289,-0.3555 c -0.30599,-0.081 -0.62431,-0.1167 -0.94141,-0.1016 z m 0.58789,0.5 h 0.67383 c 0.20202,-0.012 0.40459,0.012 0.59961,0.067 a 0.51,0.51 0 0 1 0.25,0.1894 0.49999997,0.49999997 0 0 1 0.0937,0.293 0.49999997,0.49999997 0 0 1 -0.1875,0.4082 c -0.19997,0.1239 -0.45739,0.177 -0.70117,0.1543 h -0.72266 z"
         style="fill:#1a1718;stroke-width:0.99999994"
         inkscape:connector-curvature="0" />
      <path
         id="path9017"
         transform="scale(0.26458333)"
         d="m 469.17969,1277.9004 a 3.48,3.48 0 0 0 -1.66407,0.4434 3.14,3.14 0 0 0 -1.2832,1.2636 3.42,3.42 0 0 0 -0.006,3.418 c 0.29201,0.534 0.73259,0.9655 1.26758,1.2656 a 3.42,3.42 0 0 0 3.40039,0 c 0.53503,-0.291 0.96358,-0.7306 1.26367,-1.2656 0.60443,-1.06 0.59219,-2.3619 -0.008,-3.4199 a 3.1599999,3.1599999 0 0 0 -1.27734,-1.2637 3.5199999,3.5199999 0 0 0 -1.67774,-0.4414 3.48,3.48 0 0 1 -0.002,0 3.48,3.48 0 0 0 -0.0137,0 z m 0.01,0.5664 h 0.004 a 2.87,2.87 0 0 1 1.40039,0.3691 c 0.44999,0.241 0.82036,0.6077 1.06641,1.0547 a 2.88,2.88 0 0 1 0,2.8516 c -0.24401,0.455 -0.61062,0.8117 -1.05664,1.0547 a 2.8299999,2.8299999 0 0 1 -2.83594,0 2.72,2.72 0 0 1 -1.06055,-1.0547 2.85,2.85 0 0 1 0.008,-2.8496 2.6799999,2.6799999 0 0 1 1.06836,-1.0547 2.9199999,2.9199999 0 0 1 1.40625,-0.3711 z"
         style="fill:#1a1718;stroke-width:0.99999994"
         inkscape:connector-curvature="0" />
      <path
         id="path9001"
         transform="scale(0.26458333)"
         d="m 324.81836,1251.7832 c -0.74707,0 -1.51227,0.01 -2.29102,0.033 -16.06,1.002 -20.57959,2.6665 -25.43359,5.4785 -3.93598,2.292 -3.93702,7.252 -3.70703,8.459 0.248,1.292 0.50004,1.7474 1.37305,1.7285 0.98499,-0.039 2.14894,-1.083 3.08593,-2.416 a 19.11,19.11 0 0 1 7.01953,-5.9004 34.95,34.95 0 0 1 11.74805,-3.3125 l 5.73047,-0.5625 a 43.319999,43.319999 0 0 1 4.97852,0.062 c 3.24,0.083 5.16703,1.498 5.54101,3.418 a 2.27,2.27 0 0 1 -0.29101,1.541 c -1.33001,2.209 -7.3086,6.4996 -19.0586,7.1855 -0.24402,0.022 -0.95892,-0.1455 -0.54492,-0.6855 3.485,-2.405 7.14146,-4.5499 10.93945,-6.4199 3.29,-1.165 2.93696,-2.1235 2.37696,-2.9785 a 4.7999999,4.7999999 0 0 0 -1.29102,-0.8731 c -0.62,-0.3349 -4.26322,-0.021 -5.19922,0.2285 a 26.7,26.7 0 0 0 -3.90039,1.5996 c -7.42,3.4201 -22.44039,14.8925 -23.40039,15.5196 l -4.35352,3.4765 a 38.000001,38.000001 0 0 0 -3.60156,3.8301 c -0.928,1.211 -2.28222,5.1515 2.30078,4.8574 a 56.899996,56.899996 0 0 0 8.76368,-1.4746 c 1.93,-0.524 1.37351,-1.9356 0.72851,-3.8926 0.105,-1.542 5.10497,-6.3773 8.66797,-6.4824 6.362,-0.208 17.23639,7.0249 19.40039,9.5449 -0.205,4.726 0.45748,4.0562 5.52149,3.3692 a 8.1299999,8.1299999 0 0 0 3.93359,-1.5391 c 0.52401,-0.539 0.77695,-0.71 0.87695,-1.123 0.13702,-0.772 -0.26079,-1.25 -0.30078,-1.75 2.062,-0.263 7.02297,-2.9995 8.54297,-5.0625 0.315,2.6851 3.60403,4.336 9.79101,0.166 0.20501,1.875 2.06161,4.0645 7.22461,2.5195 a 40.46,40.46 0 0 1 -4.76757,4.877 c -2.81201,2.063 -9.16457,3.938 -12.85157,1.623 -1.603,-1.14 -1.85447,-1.5595 -3.73047,-1.5996 a 7.8199996,7.8199996 0 0 0 -3.33203,0.7305 c -1.86,0.644 -2.52301,1.2474 -2.875,1.8144 -0.34809,0.503 -0.47552,1.1266 -0.35351,1.7266 0,0.378 0.22361,0.7285 2.59961,1.9785 3.614,1.875 6.32078,1.4361 10.80078,1.5 7.44,-0.272 12.10398,-2.6655 17.58398,-9.4805 2.333,-2.666 3.74708,-5.499 8.20508,-10.373 a 50.679998,50.679998 0 0 1 5.14453,-5.4395 l 5.12696,-3.832 c 0.91498,-0.896 0.22653,-1.667 -0.85547,-2.209 -3.917,-1.375 -7.03953,-0.4999 -10.76953,4.8321 a 25.13,25.13 0 0 1 -4.41797,4.7949 c -1.917,1.745 -3.9,3.3476 -4.5,2.5996 a 10.16,10.16 0 0 1 2.5,-4.6465 l 2.45703,-2.4766 a 1.51,1.51 0 0 0 0.0644,-2.4375 c -0.74,-0.8071 -2.23945,-0.4149 -2.93945,-0.207 -2.56,0.74 -3.5,0.9571 -9,7.0391 a 22.24,22.24 0 0 1 -2.72461,2.1875 c -3.17,1.523 -3.39551,-0.025 -1.97852,-1.625 a 10.17,10.17 0 0 1 2.41602,-2.041 c 0.56999,-0.4 0.40078,-1.7 -0.19922,-2.5 a 1.98,1.98 0 0 0 -1.04102,-0.6465 c -0.42999,-0.26 -0.66755,-0.75 -0.60156,-1.2481 0.323,-2.4341 -3.06883,-3.102 -6.79883,-2.334 -2.086,0.44 -4.08601,1.2205 -5.91601,2.3125 1.52,-1.033 2.8,-2.383 3.75,-3.957 1.26999,-2.288 -0.51954,-6.2646 -3.76953,-7.5996 -2.772,-1.1313 -7.16898,-1.8782 -12.39844,-1.9082 z m 9.64844,15.373 a 18.97,18.97 0 0 0 -4.20899,4.209 c -1.241,1.42 -2.09456,3.1345 -2.47656,4.9805 -0.064,0.4761 -0.50241,0.4975 -0.85742,0.4355 a 92.869999,92.869999 0 0 0 -13.20117,-4.832 c 4.81868,-0.1502 9.60483,-0.8428 14.26757,-2.0625 3.895,-1.145 5.14457,-1.8105 6.47657,-2.7305 z m 8.4082,1.9083 c 0.70822,0.044 1.22531,0.3257 1.38281,0.9355 h 0.008 c 0.20901,0.7709 -1.99953,3.1035 -4.14453,4.4375 -2.48799,1.561 -5.71778,2.0819 -5.80078,0.416 -0.065,-1.04 2.12303,-3.2571 4.20703,-4.4571 1.45625,-0.8225 3.16729,-1.4072 4.34766,-1.3339 z"
         style="fill:#1a1718;stroke-width:0.99999994"
         inkscape:connector-curvature="0" />
      <path
         id="path9005"
         transform="scale(0.26458333)"
         d="m 242.08008,1253.3105 c -4.3565,-0.044 -8.8418,0.3526 -13.2168,1.0606 a 56.799998,56.799998 0 0 0 -14.68359,4.0605 c -3.19,1.438 -3.93946,8.1236 0.56054,9.2696 a 85.339996,85.339996 0 0 1 12.68555,5.332 c 3.625,2.709 -3.99954,4.9979 -9.93555,5.168 a 28.899999,28.899999 0 0 1 -17.01953,-5.42 c -2.16608,-1.7069 -2.04051,-2.52 -2.1875,-3.664 0.083,-1.439 -0.875,-5.624 -7.25,1.584 h 0.0156 c -2.045,3.123 0.33156,5.625 1.60156,6.5 a 20.78,20.78 0 0 0 2.51953,1.4062 c 18.311,8.2469 34.32808,2.6856 37.95508,0.018 10.228,5.814 17.91113,2.8135 20.82812,0.7715 0.521,0.047 0.63398,0.4199 0.83399,0.4199 0.854,7.356 12.78853,2 15.39453,-1 0.37301,-0.311 0.51814,0.2099 0.5,0.166 1.405,3.375 8.40078,2.96 12.80078,0 a 63.519998,63.519998 0 0 0 6.2461,-5.3945 c 0.54498,-0.6268 0.54493,-0.5626 0.62695,-0.8555 0,-0.747 -0.66302,-2.208 -1.91602,-1.748 -1.737,0.666 -4.42539,2.8745 -7.40039,4.3945 -4.54398,2.333 -5.54495,0.25 -4.87695,-0.75 2.18598,-2.177 3.47808,-3.1758 1.95508,-4.8008 a 2.88,2.88 0 0 0 -0.74805,-2.8105 c -1.94,-2.834 -6.94,-5.4555 -18.5,3.8945 l -3.01953,2.082 a 37.2,37.2 0 0 1 -6.25,3.2696 c -1.397,0.46 -7.91703,2.4424 -6.95703,-1.6446 a 22.7,22.7 0 0 0 8.68554,-0.875 17.3,17.3 0 0 0 3.23047,-1.75 c 0.957,-0.77 1.99858,-2.0216 1.72657,-2.2714 0.35,-0.9181 0.2937,-1.9405 -0.1543,-2.8145 a 3.4599999,3.4599999 0 0 0 -2.19727,-1.7676 c -0.66599,-0.084 -3.00053,-0.334 -4.14453,-0.334 a 39.099999,39.099999 0 0 0 -3.91797,0.5 c -2.102,0.562 -4.28203,1.5435 -8.58203,4.4805 a 4.2899999,4.2899999 0 0 1 -1.97851,1.166 c -3.999,-3.644 -10.31056,-6.1235 -14.97657,-7.4785 -1.146,-0.334 -0.7495,-1.9384 0.9375,-2.8144 2.947,-1.5401 10.19383,-2.7715 17.29883,-2.8536 a 44.499998,44.499998 0 0 1 9.04102,0.7715 c 3.689,0.707 0.205,3.8951 1.625,4.4571 0,0.1904 0.46,0.208 1,0.1679 a 8.0399999,8.0399999 0 0 0 2.26953,-0.5429 c 10.772,-5.376 3.23044,-7.4377 2.02344,-7.7696 -3.864,-1.0515 -8.09272,-1.5359 -12.44922,-1.5801 z m 7.52539,15.3282 c 0.576,-0.048 1.02268,0 1.17969,0.1855 0.406,0.583 -0.90039,1.3227 -2.40039,1.7227 a 5.1599999,5.1599999 0 0 1 -3.10352,0.088 c -0.195,-0.5531 1.02509,-1.1768 2.37109,-1.5938 0.673,-0.2084 1.37713,-0.3545 1.95313,-0.4023 z m 20.44336,1.0117 c 0.25464,0 0.49954,0.011 0.73242,0.049 h 0.004 c 2.103,0.33 -0.2048,3.3958 -3.2168,5.6758 -2.273,1.72 -4.94464,2.9933 -6.43164,2.3203 -2.072,-0.93 7e-4,-3.7035 2.9707,-5.7305 1.90225,-1.295 4.15888,-2.2873 5.94141,-2.3144 z"
         style="fill:#1a1718;stroke-width:0.99999994"
         inkscape:connector-curvature="0" />
      <path
         id="path9009"
         d="m 117.95538,333.42504 c -2.07168,2.34263 -2.25874,2.71198 -3.42767,3.04271 -0.54716,0.16484 -1.10279,0.29898 -1.66476,0.4027 -0.31168,0.099 -0.59002,0.28204 -0.80434,0.52917 -0.21537,0.29792 -0.23098,0.48498 0.37995,0.53975 a 24.847021,24.847021 0 0 0 3.45043,0.0331 c 2.40321,-0.12621 4.97416,-0.2032 6.93367,-1.3335 0.43021,-0.25321 0.98107,-0.46831 0.70538,0.47466 -0.0603,0.17066 -0.89244,1.01335 -1.82986,2.00025 a 2.7860625,2.7860625 0 0 1 -0.67204,0.55563 c -0.37439,0.19843 -0.89324,0.27569 -2.02777,0.37041 l -4.52437,0.39688 -3.32899,0.13758 c -1.12977,0.0392 -1.67587,-0.67654 -1.78118,-1.43272 -0.0873,-0.61648 0.0439,-1.41631 0.52917,-1.8407 0.91017,-0.79375 1.60443,-1.29461 3.6158,-1.70313 0.77179,-0.15451 1.72508,-0.49636 1.7145,-0.71093 -0.0169,-0.24263 -0.38021,-0.28099 -1.15676,-0.20373 a 6.5563749,6.5563749 0 0 0 -2.04973,0.54001 c -1.11125,0.4961 -2.15635,1.39489 -4.38309,2.90513 -4.0296,2.73367 -7.47368,4.06188 -8.603718,2.80458 -0.211667,-0.24236 -0.47625,-0.79957 -0.110067,-1.59279 a 3.7914791,3.7914791 0 0 1 0.79375,-1.12474 c 0.18124,-0.18706 0.343955,-0.39688 0.517795,-0.57891 0.055,-0.0542 0.13758,-0.1098 0.18732,-0.16537 0.14288,-0.1434 0.22543,-0.15875 0.28628,-0.12065 0.0873,0.0926 0.14287,0.21008 0.15875,0.33602 0.0881,0.2794 0.30559,0.49901 0.5842,0.5895 0.35798,0.127 1.04113,0.33602 2.56249,0.127 1.44462,-0.19844 3.56658,-1.29646 5.34458,-2.62996 l 2.16112,-1.57031 c 0.73395,-0.55562 1.53379,-1.01864 2.38125,-1.37583 a 9.8663124,9.8663124 0 0 1 2.81093,-0.75009 c 0.30321,-0.0217 0.85461,-0.0326 1.10226,0.11589 0.254,0.14896 0.47466,0.51329 0.41936,0.72231 a 1.1218333,1.1218333 0 0 1 -0.27622,0.5125"
         style="fill:#1a1718;stroke-width:0.26458332"
         inkscape:connector-curvature="0" />
      <path
         id="path9003"
         d="m 101.07946,337.40215 a 1.4843125,1.4843125 0 0 1 0.0437,-0.77708 1.3864166,1.3864166 0 0 1 0.21431,-0.39687 9.823979,9.823979 0 0 1 1.01971,-1.2237 c 0.20373,-0.24765 0.7612,-0.66146 0.66146,0.39158 0.0264,0.18733 0.29236,0.39158 0.65008,0.52917 0.67283,0.2532 2.80008,0.31935 5.64462,-1.68725 1.76847,-1.25148 3.65125,-3.10277 5.87375,-3.92906 1.42716,-0.52917 3.20807,-1.03188 4.91066,-0.61728 a 0.59002083,0.59002083 0 0 1 0.24818,0.9525 c -0.5625,0.60669 -1.01441,1.1684 -1.4769,1.61396 -0.0569,0.0571 -0.12753,0.0987 -0.20479,0.12171 a 0.28310416,0.28310416 0 0 1 -0.30771,-0.0439 c -0.11827,-0.16669 -0.26379,-0.31168 -0.43048,-0.42968 -0.24765,-0.14923 -1.05251,-0.13759 -1.35572,-0.11563 a 10.009187,10.009187 0 0 0 -2.81649,0.77126 11.310937,11.310937 0 0 0 -2.33177,1.36684 l -2.16033,1.57242 c -1.78593,1.3335 -3.93514,2.41379 -5.3795,2.61938 -1.51527,0.21166 -2.177,-0.0339 -2.39792,-0.17093 -0.15293,-0.10133 -0.27782,-0.23997 -0.36328,-0.40216 0,0.0106 -0.0222,-0.0326 -0.0222,-0.0326 l 0.0222,0.0326 c 0.005,-0.005 -0.005,-0.0381 -0.0436,-0.14288"
         style="fill:#1a1718;stroke-width:0.26458332"
         inkscape:connector-curvature="0" />
    </g>
  </g>
</svg>
